 0
SECTION
 2
HEADER
 9
$ACADVER
 1
AC1009
 0
ENDSEC
 0
SECTION
 2
TABLES
 0
TABLE
 2
LTYPE
 70
1
 0
LTYPE
 2
CONTINUOUS
 70
64
 3
solid line
 72
65
 73
0
 40
0.0
 0
ENDTAB
 0
TABLE
 2
LAYER
 70
6
 0
LAYER
 2
0
 70
0
 62
7
 6
CONTINUOUS
 0
LAYER
 2
TERRASSE_SPLINE_1
 70
64
 62
7
 6
CONTINUOUS
 0
ENDTAB
 0
ENDSEC
 0
SECTION
 2
BLOCKS
 0
ENDSEC
 0
SECTION
 2
ENTITIES
 0
POLYLINE
 8
TERRASSE_SPLINE_1
 66
1
 10
0.0
 20
0.0
 30
0.0
 70
8
 0
VERTEX
 8
TERRASSE_SPLINE_1
 10
3.6027
 20
0.3113
 30
-1.474
 70
32
 0
VERTEX
 8
TERRASSE_SPLINE_1
 10
3.6027
 20
0.2913
 30
-1.474
 70
32
 0
VERTEX
 8
TERRASSE_SPLINE_1
 10
6.7314
 20
0.2913
 30
-1.6975
 70
32
 0
VERTEX
 8
TERRASSE_SPLINE_1
 10
7.4902
 20
0.2913
 30
-1.7517
 70
32
 0
VERTEX
 8
TERRASSE_SPLINE_1
 10
7.4902
 20
0.3113
 30
-1.7517
 70
32
 0
VERTEX
 8
TERRASSE_SPLINE_1
 10
6.7314
 20
0.3113
 30
-1.6975
 70
32
 0
VERTEX
 8
TERRASSE_SPLINE_1
 10
6.7286
 20
0.3113
 30
-1.6973
 70
32
 0
VERTEX
 8
TERRASSE_SPLINE_1
 10
3.6027
 20
0.3113
 30
-1.474
 70
32
 0
SEQEND
 0
POLYLINE
 8
TERRASSE_SPLINE_1
 66
1
 10
0.0
 20
0.0
 30
0.0
 70
8
 0
VERTEX
 8
TERRASSE_SPLINE_1
 10
-8.6468
 20
0.2913
 30
-0.5992
 70
32
 0
VERTEX
 8
TERRASSE_SPLINE_1
 10
-8.3712
 20
0.2913
 30
-0.6189
 70
32
 0
VERTEX
 8
TERRASSE_SPLINE_1
 10
-7.515
 20
0.2913
 30
-0.68
 70
32
 0
VERTEX
 8
TERRASSE_SPLINE_1
 10
-6.2907
 20
0.2913
 30
-0.7675
 70
32
 0
VERTEX
 8
TERRASSE_SPLINE_1
 10
-6.2907
 20
0.3113
 30
-0.7675
 70
32
 0
VERTEX
 8
TERRASSE_SPLINE_1
 10
-7.515
 20
0.3113
 30
-0.68
 70
32
 0
VERTEX
 8
TERRASSE_SPLINE_1
 10
-8.3684
 20
0.3113
 30
-0.6191
 70
32
 0
VERTEX
 8
TERRASSE_SPLINE_1
 10
-8.6468
 20
0.3113
 30
-0.5992
 70
32
 0
VERTEX
 8
TERRASSE_SPLINE_1
 10
-8.6468
 20
0.2913
 30
-0.5992
 70
32
 0
SEQEND
 0
POLYLINE
 8
TERRASSE_SPLINE_1
 66
1
 10
0.0
 20
0.0
 30
0.0
 70
8
 0
VERTEX
 8
TERRASSE_SPLINE_1
 10
3.6322
 20
0.1856
 30
-1.4762
 70
32
 0
VERTEX
 8
TERRASSE_SPLINE_1
 10
3.8815
 20
0.1856
 30
-1.494
 70
32
 0
VERTEX
 8
TERRASSE_SPLINE_1
 10
3.8815
 20
0.1616
 30
-1.494
 70
32
 0
VERTEX
 8
TERRASSE_SPLINE_1
 10
3.8815
 20
-1.0058
 30
-1.494
 70
32
 0
VERTEX
 8
TERRASSE_SPLINE_1
 10
3.8815
 20
-1.2444
 30
-1.494
 70
32
 0
VERTEX
 8
TERRASSE_SPLINE_1
 10
3.8815
 20
-1.3144
 30
-1.494
 70
32
 0
VERTEX
 8
TERRASSE_SPLINE_1
 10
3.5331
 20
-1.3359
 30
-1.4691
 70
32
 0
VERTEX
 8
TERRASSE_SPLINE_1
 10
3.4327
 20
-1.3421
 30
-1.4619
 70
32
 0
VERTEX
 8
TERRASSE_SPLINE_1
 10
1.8125
 20
-1.442
 30
-1.3462
 70
32
 0
VERTEX
 8
TERRASSE_SPLINE_1
 10
1.5645
 20
-1.4573
 30
-1.3285
 70
32
 0
VERTEX
 8
TERRASSE_SPLINE_1
 10
0.8393
 20
-1.5021
 30
-1.2767
 70
32
 0
VERTEX
 8
TERRASSE_SPLINE_1
 10
0.6398
 20
-1.5144
 30
-1.2624
 70
32
 0
VERTEX
 8
TERRASSE_SPLINE_1
 10
0.4403
 20
-1.5544
 30
-1.2482
 70
32
 0
VERTEX
 8
TERRASSE_SPLINE_1
 10
-3.1505
 20
-2.2744
 30
-0.9917
 70
32
 0
VERTEX
 8
TERRASSE_SPLINE_1
 10
-3.3025
 20
-2.3049
 30
-0.9809
 70
32
 0
VERTEX
 8
TERRASSE_SPLINE_1
 10
-3.35
 20
-2.3144
 30
-0.9775
 70
32
 0
VERTEX
 8
TERRASSE_SPLINE_1
 10
-6.1429
 20
-2.3144
 30
-0.778
 70
32
 0
VERTEX
 8
TERRASSE_SPLINE_1
 10
-6.2427
 20
-2.3144
 30
-0.7709
 70
32
 0
VERTEX
 8
TERRASSE_SPLINE_1
 10
-6.2427
 20
-3.2469
 30
-0.7709
 70
32
 0
VERTEX
 8
TERRASSE_SPLINE_1
 10
-6.2427
 20
-3.3144
 30
-0.7709
 70
32
 0
VERTEX
 8
TERRASSE_SPLINE_1
 10
-6.5918
 20
-3.3144
 30
-0.746
 70
32
 0
VERTEX
 8
TERRASSE_SPLINE_1
 10
-6.5918
 20
-3.2466
 30
-0.746
 70
32
 0
VERTEX
 8
TERRASSE_SPLINE_1
 10
-6.5918
 20
-2.6058
 30
-0.746
 70
32
 0
VERTEX
 8
TERRASSE_SPLINE_1
 10
-6.5918
 20
-2.3766
 30
-0.746
 70
32
 0
VERTEX
 8
TERRASSE_SPLINE_1
 10
-6.5918
 20
-2.3144
 30
-0.746
 70
32
 0
VERTEX
 8
TERRASSE_SPLINE_1
 10
-6.5918
 20
-2.0058
 30
-0.746
 70
32
 0
VERTEX
 8
TERRASSE_SPLINE_1
 10
-6.5918
 20
-1.7919
 30
-0.746
 70
32
 0
VERTEX
 8
TERRASSE_SPLINE_1
 10
-6.5918
 20
-1.6133
 30
-0.746
 70
32
 0
VERTEX
 8
TERRASSE_SPLINE_1
 10
-6.5918
 20
-1.2734
 30
-0.746
 70
32
 0
VERTEX
 8
TERRASSE_SPLINE_1
 10
-6.5918
 20
0.0472
 30
-0.746
 70
32
 0
VERTEX
 8
TERRASSE_SPLINE_1
 10
-6.5918
 20
0.1856
 30
-0.746
 70
32
 0
VERTEX
 8
TERRASSE_SPLINE_1
 10
-6.3424
 20
0.1856
 30
-0.7638
 70
32
 0
VERTEX
 8
TERRASSE_SPLINE_1
 10
-6.3424
 20
0.1616
 30
-0.7638
 70
32
 0
VERTEX
 8
TERRASSE_SPLINE_1
 10
-6.3424
 20
0.1319
 30
-0.7638
 70
32
 0
VERTEX
 8
TERRASSE_SPLINE_1
 10
-6.3424
 20
-1.597
 30
-0.7638
 70
32
 0
VERTEX
 8
TERRASSE_SPLINE_1
 10
-6.3424
 20
-2.0058
 30
-0.7638
 70
32
 0
VERTEX
 8
TERRASSE_SPLINE_1
 10
-6.3424
 20
-2.0144
 30
-0.7638
 70
32
 0
VERTEX
 8
TERRASSE_SPLINE_1
 10
-3.3643
 20
-2.0144
 30
-0.9765
 70
32
 0
VERTEX
 8
TERRASSE_SPLINE_1
 10
-3.35
 20
-2.0144
 30
-0.9775
 70
32
 0
VERTEX
 8
TERRASSE_SPLINE_1
 10
0.4403
 20
-1.2544
 30
-1.2482
 70
32
 0
VERTEX
 8
TERRASSE_SPLINE_1
 10
0.5034
 20
-1.2418
 30
-1.2527
 70
32
 0
VERTEX
 8
TERRASSE_SPLINE_1
 10
0.6398
 20
-1.2144
 30
-1.2624
 70
32
 0
VERTEX
 8
TERRASSE_SPLINE_1
 10
0.8393
 20
-1.2011
 30
-1.2767
 70
32
 0
VERTEX
 8
TERRASSE_SPLINE_1
 10
3.6322
 20
-1.0144
 30
-1.4762
 70
32
 0
VERTEX
 8
TERRASSE_SPLINE_1
 10
3.6322
 20
-1.0058
 30
-1.4762
 70
32
 0
VERTEX
 8
TERRASSE_SPLINE_1
 10
3.6322
 20
-0.184
 30
-1.4762
 70
32
 0
VERTEX
 8
TERRASSE_SPLINE_1
 10
3.6322
 20
0.1319
 30
-1.4762
 70
32
 0
VERTEX
 8
TERRASSE_SPLINE_1
 10
3.6322
 20
0.1616
 30
-1.4762
 70
32
 0
SEQEND
 0
POLYLINE
 8
TERRASSE_SPLINE_1
 66
1
 10
0.0
 20
0.0
 30
0.0
 70
8
 0
VERTEX
 8
TERRASSE_SPLINE_1
 10
10.5822
 20
0.6442
 30
-1.9725
 70
32
 0
VERTEX
 8
TERRASSE_SPLINE_1
 10
7.409
 20
0.6442
 30
-1.7459
 70
32
 0
VERTEX
 8
TERRASSE_SPLINE_1
 10
7.3891
 20
0.6442
 30
-1.7445
 70
32
 0
VERTEX
 8
TERRASSE_SPLINE_1
 10
7.0077
 20
0.6442
 30
-1.7172
 70
32
 0
VERTEX
 8
TERRASSE_SPLINE_1
 10
7.0077
 20
0.4442
 30
-1.7172
 70
32
 0
VERTEX
 8
TERRASSE_SPLINE_1
 10
6.9929
 20
0.4442
 30
-1.7162
 70
32
 0
VERTEX
 8
TERRASSE_SPLINE_1
 10
6.7314
 20
0.4442
 30
-1.6975
 70
32
 0
VERTEX
 8
TERRASSE_SPLINE_1
 10
6.7314
 20
0.3113
 30
-1.6975
 70
32
 0
VERTEX
 8
TERRASSE_SPLINE_1
 10
6.7314
 20
0.2913
 30
-1.6975
 70
32
 0
VERTEX
 8
TERRASSE_SPLINE_1
 10
6.7314
 20
0.2442
 30
-1.6975
 70
32
 0
VERTEX
 8
TERRASSE_SPLINE_1
 10
6.4348
 20
0.2442
 30
-1.6763
 70
32
 0
VERTEX
 8
TERRASSE_SPLINE_1
 10
6.4348
 20
0.1756
 30
-1.6763
 70
32
 0
VERTEX
 8
TERRASSE_SPLINE_1
 10
6.4348
 20
0.062
 30
-1.6763
 70
32
 0
VERTEX
 8
TERRASSE_SPLINE_1
 10
3.8815
 20
-0.1621
 30
-1.494
 70
32
 0
VERTEX
 8
TERRASSE_SPLINE_1
 10
3.6322
 20
-0.184
 30
-1.4762
 70
32
 0
VERTEX
 8
TERRASSE_SPLINE_1
 10
2.8823
 20
-0.2498
 30
-1.4226
 70
32
 0
VERTEX
 8
TERRASSE_SPLINE_1
 10
1.1031
 20
-0.4267
 30
-1.2955
 70
32
 0
VERTEX
 8
TERRASSE_SPLINE_1
 10
0.2692
 20
-0.5096
 30
-1.236
 70
32
 0
VERTEX
 8
TERRASSE_SPLINE_1
 10
-0.9745
 20
-0.5364
 30
-1.1471
 70
32
 0
VERTEX
 8
TERRASSE_SPLINE_1
 10
-1.8893
 20
-0.5877
 30
-1.0818
 70
32
 0
VERTEX
 8
TERRASSE_SPLINE_1
 10
-3.2199
 20
-0.8022
 30
-0.9868
 70
32
 0
VERTEX
 8
TERRASSE_SPLINE_1
 10
-4.0666
 20
-1.0157
 30
-0.9263
 70
32
 0
VERTEX
 8
TERRASSE_SPLINE_1
 10
-5.2873
 20
-1.3805
 30
-0.8391
 70
32
 0
VERTEX
 8
TERRASSE_SPLINE_1
 10
-6.3262
 20
-1.6563
 30
-0.7649
 70
32
 0
VERTEX
 8
TERRASSE_SPLINE_1
 10
-6.5918
 20
-1.7919
 30
-0.746
 70
32
 0
VERTEX
 8
TERRASSE_SPLINE_1
 10
-6.8221
 20
-1.9095
 30
-0.7295
 70
32
 0
VERTEX
 8
TERRASSE_SPLINE_1
 10
-7.0943
 20
-1.9725
 30
-0.7101
 70
32
 0
VERTEX
 8
TERRASSE_SPLINE_1
 10
-7.7649
 20
-2.1277
 30
-0.6622
 70
32
 0
VERTEX
 8
TERRASSE_SPLINE_1
 10
-8.05
 20
-2.424
 30
-0.6418
 70
32
 0
VERTEX
 8
TERRASSE_SPLINE_1
 10
-8.5904
 20
-2.565
 30
-0.6032
 70
32
 0
VERTEX
 8
TERRASSE_SPLINE_1
 10
-8.6468
 20
-2.5797
 30
-0.5992
 70
32
 0
VERTEX
 8
TERRASSE_SPLINE_1
 10
-8.6752
 20
-2.5871
 30
-0.5972
 70
32
 0
VERTEX
 8
TERRASSE_SPLINE_1
 10
-8.8897
 20
-2.5832
 30
-0.5819
 70
32
 0
VERTEX
 8
TERRASSE_SPLINE_1
 10
-10.6529
 20
-2.5511
 30
-0.4559
 70
32
 0
VERTEX
 8
TERRASSE_SPLINE_1
 10
-13.3002
 20
-2.7721
 30
-0.2669
 70
32
 0
VERTEX
 8
TERRASSE_SPLINE_1
 10
-14.0567
 20
-2.7906
 30
-0.2128
 70
32
 0
SEQEND
 0
POLYLINE
 8
TERRASSE_SPLINE_1
 66
1
 10
0.0
 20
0.0
 30
0.0
 70
8
 0
VERTEX
 8
TERRASSE_SPLINE_1
 10
-8.1481
 20
-1.6738
 30
-0.6348
 70
32
 0
VERTEX
 8
TERRASSE_SPLINE_1
 10
-8.1481
 20
-0.7044
 30
-0.6348
 70
32
 0
VERTEX
 8
TERRASSE_SPLINE_1
 10
-8.1481
 20
0.1756
 30
-0.6348
 70
32
 0
VERTEX
 8
TERRASSE_SPLINE_1
 10
-8.1481
 20
0.1856
 30
-0.6348
 70
32
 0
VERTEX
 8
TERRASSE_SPLINE_1
 10
-8.3861
 20
0.1856
 30
-0.6178
 70
32
 0
VERTEX
 8
TERRASSE_SPLINE_1
 10
-8.6468
 20
0.1856
 30
-0.5992
 70
32
 0
VERTEX
 8
TERRASSE_SPLINE_1
 10
-8.6468
 20
0.0765
 30
-0.5992
 70
32
 0
VERTEX
 8
TERRASSE_SPLINE_1
 10
-8.6468
 20
-0.3558
 30
-0.5992
 70
32
 0
VERTEX
 8
TERRASSE_SPLINE_1
 10
-8.6468
 20
-1.6738
 30
-0.5992
 70
32
 0
VERTEX
 8
TERRASSE_SPLINE_1
 10
-8.6468
 20
-3.451
 30
-0.5992
 70
32
 0
VERTEX
 8
TERRASSE_SPLINE_1
 10
-8.6468
 20
-3.8738
 30
-0.5992
 70
32
 0
VERTEX
 8
TERRASSE_SPLINE_1
 10
-8.1481
 20
-3.8738
 30
-0.6348
 70
32
 0
SEQEND
 0
ENDSEC
 0
EOF
